Coordinates
version=1
nRows=54
nColumns=12
inDegrees=yes

Units are S.I. units (second, meters, Newtons, ...)
Angles are in degrees

endheader
time	SC_y	SC_z	SC_x	AC_y	AC_z	AC_x	GH_y	GH_z	GH_yy	EL_x	PS_y
       0.0              -40.27          19.89          75.37          69.74         -3.393          17.56         -161.6          9.017         -70.71          87.08          24.03
   0.01097              -40.27          19.89          75.37          69.74         -3.394          17.55         -161.6          9.028         -70.69          87.08          24.03
   0.02195              -40.27          19.89          75.36          69.73         -3.395          17.55         -161.5          9.041         -70.67          87.07          24.04
   0.03292              -40.26          19.89          75.35          69.73         -3.396          17.54         -161.5          9.053         -70.65          87.07          24.04
   0.04389              -40.26          19.89          75.34          69.72         -3.397          17.54         -161.5          9.067         -70.63          87.06          24.04
   0.05487              -40.26           19.9          75.33          69.72         -3.399          17.53         -161.4          9.082         -70.61          87.06          24.04
   0.06584              -40.26           19.9          75.32          69.71           -3.4          17.53         -161.4          9.098         -70.59          87.05          24.04
   0.07681              -40.25           19.9          75.31          69.71         -3.401          17.52         -161.4          9.115         -70.56          87.04          24.04
   0.08778              -40.25           19.9           75.3           69.7         -3.403          17.51         -161.3          9.132         -70.54          87.04          24.04
   0.09876              -40.25           19.9          75.29           69.7         -3.405           17.5         -161.3          9.152         -70.51          87.03          24.05
    0.1097              -40.24          19.91          75.28          69.69         -3.406           17.5         -161.2          9.173         -70.48          87.02          24.05
    0.1207              -40.24          19.91          75.26          69.69         -3.408          17.49         -161.2          9.195         -70.45          87.01          24.05
    0.1317              -40.24          19.91          75.25          69.68          -3.41          17.48         -161.1          9.219         -70.41           87.0          24.05
    0.1426              -40.23          19.92          75.23          69.67         -3.413          17.47         -161.1          9.245         -70.38          86.99          24.05
    0.1536              -40.23          19.92          75.21          69.66         -3.415          17.45         -161.0          9.273         -70.34          86.98          24.06
    0.1646              -40.22          19.92          75.19          69.65         -3.418          17.44         -160.9          9.303         -70.29          86.96          24.06
    0.1756              -40.22          19.93          75.17          69.64         -3.421          17.43         -160.9          9.337         -70.25          86.95          24.06
    0.1865              -40.21          19.93          75.15          69.63         -3.424          17.41         -160.8          9.373         -70.19          86.94          24.07
    0.1975              -40.21          19.94          75.13          69.62         -3.427           17.4         -160.7          9.412         -70.14          86.92          24.07
    0.2085               -40.2          19.94           75.1          69.61         -3.431          17.38         -160.6          9.455         -70.07           86.9          24.07
    0.2195              -40.19          19.95          75.07          69.59         -3.435          17.36         -160.5          9.503         -70.01          86.88          24.08
    0.2304              -40.19          19.96          75.04          69.58          -3.44          17.34         -160.3          9.555         -69.93          86.86          24.08
    0.2414              -40.18          19.96           75.0          69.56         -3.445          17.32         -160.2          9.612         -69.85          86.84          24.09
    0.2524              -40.17          19.97          74.96          69.54          -3.45          17.29         -160.1          9.676         -69.76          86.81          24.09
    0.2634              -40.16          19.98          74.92          69.52         -3.457          17.26         -159.9          9.747         -69.65          86.78           24.1
    0.2743              -40.14          19.99          74.87          69.49         -3.464          17.23         -159.7          9.826         -69.54          86.75          24.11
    0.2853              -40.13           20.0          74.81          69.47         -3.471          17.19         -159.5          9.915         -69.41          86.71          24.11
    0.2963              -40.11          20.01          74.75          69.44          -3.48          17.15         -159.3          10.01         -69.27          86.67          24.12
    0.3072               -40.1          20.03          74.68           69.4          -3.49           17.1         -159.0          10.13         -69.11          86.62          24.13
    0.3182              -40.08          20.05           74.6          69.36         -3.501          17.05         -158.7          10.26         -68.92          86.57          24.14
    0.3292              -40.05          20.06          74.51          69.32         -3.514          16.99         -158.4           10.4         -68.71          86.51          24.16
    0.3402              -40.03          20.08          74.41          69.27         -3.528          16.92         -158.0          10.57         -68.47          86.44          24.17
    0.3511               -40.0          20.11          74.29          69.21         -3.545          16.84         -157.6          10.76         -68.19          86.36          24.19
    0.3621              -39.96          20.14          74.15          69.14         -3.565          16.75         -157.1          10.99         -67.87          86.26          24.21
    0.3731              -39.92          20.17          73.98          69.06         -3.588          16.64         -156.5          11.25         -67.49          86.15          24.23
    0.3841              -39.88          20.21          73.79          68.96         -3.615          16.52         -155.7          11.56         -67.04          86.02          24.26
     0.395              -39.82          20.26          73.56          68.85         -3.647          16.37         -154.9          11.93         -66.51          85.87          24.29
     0.406              -39.75          20.31          73.28          68.72         -3.686          16.18         -153.9          12.37         -65.88          85.69          24.33
     0.417              -39.67          20.38          72.95          68.55         -3.733          15.96         -152.7          12.91         -65.11          85.46          24.38
    0.4279              -39.57          20.47          72.54          68.35          -3.79           15.7         -151.2          13.56         -64.17          85.19          24.44
    0.4389              -39.44          20.57          72.04          68.11          -3.86          15.37         -149.3          14.37         -63.01          84.86          24.51
    0.4499              -39.29           20.7          71.42           67.8         -3.948          14.95         -147.0          15.37         -61.56          84.44           24.6
    0.4609              -39.09          20.86          70.63          67.41         -4.059          14.44         -144.1          16.64         -59.74          83.91          24.71
    0.4718              -38.84          21.06          69.62          66.92         -4.199          13.78         -140.4          18.25         -57.42          83.24          24.86
    0.4828              -38.52          21.32          68.34          66.29         -4.379          12.93         -135.7          20.31         -54.46          82.38          25.04
    0.4938              -38.11          21.66          66.69          65.49          -4.61          11.85         -129.6          22.95         -50.65          81.28          25.27
    0.5048              -37.59          22.09          64.59          64.46         -4.905          10.46         -121.9          26.33         -45.79          79.88          25.58
    0.5157              -36.94          22.63          61.95          63.16         -5.276          8.722         -112.1          30.57         -39.68          78.11          25.95
    0.5267              -36.14          23.29          58.72          61.58         -5.728            6.6         -100.2          35.75         -32.23          75.95          26.42
    0.5377              -35.21          24.05          54.99          59.75         -6.252          4.141         -86.46          41.75          -23.6          73.46          26.95
    0.5487               -34.2          24.88          50.94          57.77          -6.82          1.479         -71.56          48.24         -14.25          70.75          27.53
    0.5596               -33.2          25.71           46.9          55.79         -7.387         -1.184         -56.65          54.74         -4.906          68.05          28.11
    0.5706              -32.27          26.47          43.16          53.96         -7.911         -3.643         -42.88          60.73          3.727          65.55          28.64
    0.5816              -31.47          27.13          39.94          52.38         -8.363         -5.764         -31.01          65.91          11.17           63.4           29.1
